<?xml version="1.0" encoding="utf-8"?>
<!-- Generator: Adobe Illustrator 26.1.0, SVG Export Plug-In . SVG Version: 6.00 Build 0)  -->
<svg version="1.1" id="Layer_1" xmlns="http://www.w3.org/2000/svg" xmlns:xlink="http://www.w3.org/1999/xlink" x="0px" y="0px"
	 viewBox="0 0 260 50" style="enable-background:new 0 0 260 50;" xml:space="preserve">
<g>
	<path d="M17,18.4c0,0.2-0.2,0.5-0.5,0.7s-0.7,0.4-1.1,0.4c-0.2,0-0.6-0.1-0.9-0.4c-0.3-0.2-0.7-0.5-1.3-0.7
		c-0.6-0.2-1.5-0.4-2.7-0.4c-1.5,0-2.6,0.2-3.2,0.7s-1,1-1,1.6c0,0.8,0.6,1.5,1.7,2s2.4,1,3.9,1.4c1.1,0.3,2.1,0.7,3.1,1
		s1.9,0.8,2.5,1.3c0.6,0.5,1,1.2,1,1.9c0,1.1-0.5,2-1.4,2.9c-1,0.9-2.2,1.6-3.9,2.1c-1.6,0.5-3.4,0.8-5.3,0.8c-1.5,0-2.8-0.2-4-0.5
		S1.7,32.7,1,32.2c-0.7-0.5-1-0.9-1-1.4c0-0.3,0.2-0.7,0.7-1s1-0.5,1.5-0.5c0.4,0,0.7,0.2,1.1,0.6c0.2,0.3,0.6,0.6,1,1
		c0.4,0.4,1,0.7,1.8,0.9c0.8,0.3,1.9,0.4,3.3,0.4c2,0,3.5-0.3,4.6-1s1.6-1.4,1.6-2.3c0-1-0.6-1.9-1.8-2.4s-2.5-1-4-1.4
		c-1-0.3-1.9-0.6-2.9-0.9c-0.9-0.3-1.7-0.7-2.3-1.2s-0.9-1.1-0.9-1.9c0-0.9,0.4-1.6,1.2-2.3s1.9-1.3,3.3-1.7s2.8-0.6,4.3-0.6
		c1.3,0,2.4,0.1,3.2,0.5C16.6,17.5,17,17.9,17,18.4z"/>
	<path d="M31.2,32.5c0,0.5-0.2,0.9-0.7,1.2c-0.5,0.4-0.9,0.6-1.2,0.6c-0.2,0-0.4-0.1-0.6-0.3c-0.3-0.2-0.5-0.6-0.9-1.3
		c-0.3-0.7-0.6-1.7-1-3c-0.3-1.1-0.5-2.4-0.8-3.7c-0.2-1.4-0.4-2.7-0.5-4s-0.2-2.5-0.2-3.4c0-4,0.5-7.4,1.4-10.1
		c1-2.7,2.2-4.8,3.9-6.2c1.6-1.4,3.4-2.1,5.4-2.1c1.3,0,2.3,0.4,3,1c0.7,0.7,1,1.7,1,2.9c0,0.7-0.1,1.5-0.2,2.2
		c-0.1,0.7-0.4,1.6-0.8,2.6c-0.4,1-1,2.1-1.8,3.5c-0.8,1.4-1.9,3-3.2,5s-3,4.3-4.9,7.1c0.2,1.4,0.5,2.6,0.9,3.7
		c0.4,1,0.6,1.9,0.9,2.5c0.2,0.5,0.4,0.9,0.4,1.2C31.1,32.1,31.2,32.3,31.2,32.5z M34.5,2c-1.4,0-2.6,0.6-3.6,1.7
		c-0.9,1.2-1.7,2.8-2.1,4.9c-0.5,2.1-0.7,4.5-0.7,7.4c0,1.3,0,2.6,0.1,3.7s0.2,2.2,0.3,3.2c2.1-3.2,3.8-5.9,5-8.1s2.2-4.1,2.7-5.7
		c0.5-1.6,0.8-3,0.8-4.2c0-0.9-0.2-1.6-0.6-2.1C36.1,2.2,35.4,2,34.5,2z M49.5,34.1c-1.7,0-3.1-0.4-4.3-1.2s-2.3-1.6-3.3-2.4
		c-0.3-0.3-0.7-0.6-1-0.9c-0.3-0.3-0.7-0.5-1-0.7c-1.1-0.8-2.1-1.3-2.9-1.6c-0.8-0.3-1.6-0.4-2.4-0.4c-0.4,0-0.8,0-1.1,0.1
		c-0.3,0.1-0.6,0.1-0.8,0.1c-0.5,0-0.7-0.1-0.7-0.4c0-0.4,0.3-0.9,0.9-1.6c0.6-0.7,1.4-1.4,2.3-2.2c1-0.8,2.1-1.5,3.3-2.2
		c1.2-0.7,2.5-1.2,3.8-1.7s2.6-0.6,3.9-0.6c1.2,0,1.8,0.3,1.8,0.9c0,0.3-0.2,0.6-0.7,1c-0.5,0.4-1.2,0.6-2.3,0.6
		c-2.4,0-4.5,0.4-6.4,1.2c-1.8,0.8-3.3,1.9-4.5,3.3c0.5-0.1,1-0.2,1.6-0.2c1.1,0,2,0.1,2.8,0.3c0.7,0.2,1.5,0.5,2.3,1
		c1,0.5,1.9,1.2,2.9,2c1.1,0.9,2.2,1.7,3.5,2.5c1.2,0.8,2.6,1.1,3.9,1.1c1.1,0,2.2-0.3,3.4-0.9c1.2-0.6,2.3-1.5,3.5-2.6
		c1.1-1.1,2.2-2.3,3.1-3.6c0.2-0.3,0.5-0.5,0.9-0.5c0.3,0,0.4,0.1,0.4,0.3c0,0.2-0.1,0.4-0.2,0.6c-1.9,2.7-3.9,4.8-6.1,6.3
		C53.8,33.4,51.7,34.1,49.5,34.1z"/>
	<path d="M66.7,21.8c-0.6,0-1.3,0.3-2.1,0.9c-0.8,0.6-1.7,1.5-2.5,2.8c-0.2,0.3-0.4,0.4-0.8,0.4c-0.3,0-0.4-0.1-0.4-0.3
		c0-0.1,0.1-0.3,0.2-0.5c1.3-1.9,2.5-3.2,3.5-4c1-0.8,2.2-1.2,3.4-1.2c1.1,0,1.9,0.3,2.4,0.8c0.5,0.6,0.9,1.3,1.2,2.1
		c0.2,0.9,0.4,1.8,0.6,2.8c0.2,1,0.4,1.9,0.6,2.7s0.6,1.6,1.1,2.1c0.5,0.6,1.3,0.8,2.3,0.8c0.9,0,1.7-0.3,2.6-0.9
		c0.9-0.6,1.8-1.4,2.7-2.3c0.9-0.9,1.7-1.9,2.6-3c0.8-0.9,1.5-1.8,2.3-2.6s1.5-1.5,2.2-2c0.7-0.5,1.4-0.8,2-0.8
		c1.5,0,2.6,1.3,3.4,3.8c0.8,2.5,1.2,6,1.2,10.5c0,3.2-0.7,6.1-2.1,8.5s-3.4,4.3-6,5.6c-2.6,1.3-5.6,2-9.1,2c-1.6,0-3.2-0.2-4.7-0.5
		c-1.6-0.4-2.9-0.8-4.2-1.4c-1.3-0.6-2.3-1.2-3-1.8c-0.8-0.7-1.1-1.3-1.1-1.9c0-0.3,0.2-0.6,0.7-0.9c0.5-0.3,0.9-0.4,1.2-0.4
		c0.3,0,0.6,0.1,0.8,0.3s0.5,0.4,0.8,0.8c0.5,0.5,1.2,1.1,2,1.7c0.9,0.6,2.1,1.2,3.6,1.7c1.6,0.5,3.6,0.7,6.1,0.7
		c8,0,12-4.5,12-13.7c0-2.5-0.1-4.6-0.4-6.5c-0.2-1.9-0.6-3.4-1-4.4c-0.4-1-1-1.6-1.5-1.6c-0.5,0-1.1,0.4-1.8,1.1
		c-0.7,0.7-1.4,1.6-2.2,2.6c-0.9,1.1-1.8,2.2-2.9,3.4c-1.1,1.2-2.2,2.1-3.4,2.9s-2.6,1.2-4.1,1.2c-1.2,0-2.1-0.2-2.9-0.7
		s-1.3-1.1-1.7-1.8s-0.7-1.6-0.9-2.4c-0.2-0.9-0.4-1.7-0.5-2.6c-0.2-1.1-0.4-2-0.6-2.8C67.9,22.2,67.4,21.8,66.7,21.8z"/>
	<path d="M113.4,35.5c-3.4,0-6.2-0.6-8.2-1.7c-2-1.1-3.1-2.7-3.1-4.9c0-0.7,0.1-1.3,0.4-2c0.2-0.7,0.6-1.3,1-1.9
		c1.8-2.2,3.8-3.8,6-4.8c2.2-1,4.6-1.5,7.1-1.5c2,0,3.6,0.3,4.6,0.9c1.1,0.6,1.6,1.4,1.6,2.4c0,1-0.5,1.9-1.6,2.7s-2.4,1.4-4.1,1.8
		c-1.7,0.4-3.6,0.6-5.6,0.6c-1.5,0-2.8-0.1-3.7-0.4s-1.5-0.5-1.5-0.9c0-0.3,0.2-0.5,0.5-0.7c0.3-0.2,0.7-0.3,1-0.3
		c0.4,0,0.9,0.1,1.5,0.3c0.4,0.2,1,0.4,1.6,0.5c0.6,0.1,1.4,0.2,2.5,0.2c1.9,0,3.5-0.3,4.6-0.9c1.2-0.6,1.8-1.4,1.8-2.5
		c0-0.7-0.4-1.3-1.1-1.8c-0.8-0.5-1.8-0.7-3.1-0.7c-2,0-3.8,0.4-5.5,1.1s-3,1.7-3.9,2.9c-1,1.2-1.5,2.5-1.5,3.9
		c0,1.9,0.8,3.3,2.4,4.4s3.8,1.5,6.7,1.5c4.3,0,7.8-0.8,10.5-2.4c2.7-1.6,4.9-3.7,6.8-6.4c0.2-0.3,0.5-0.5,0.9-0.5
		c0.3,0,0.4,0.1,0.4,0.3c0,0.2-0.1,0.4-0.2,0.6c-1.4,2-2.9,3.8-4.6,5.2c-1.7,1.5-3.7,2.7-6,3.5C119.3,35.1,116.6,35.5,113.4,35.5z"
		/>
	<path d="M144.6,32.4c2.1,0,4.1-0.3,5.8-1c1.8-0.7,3.3-1.6,4.7-2.7c1.4-1.1,2.5-2.3,3.4-3.6c0.2-0.3,0.5-0.5,0.9-0.5
		c0.3,0,0.4,0.1,0.4,0.3c0,0.2-0.1,0.4-0.2,0.6c-1.9,2.7-4.1,4.8-6.7,6.5c-2.6,1.6-5.6,2.5-9.1,2.5c-2.7,0-5.1-0.7-7.1-2
		c-2-1.3-3.6-3.2-4.7-5.7c-1.1-2.5-1.6-5.4-1.6-8.9c0-3.5,0.6-6.5,1.8-9c1.2-2.5,2.7-4.4,4.5-5.7c1.8-1.3,3.6-2,5.4-2
		c2.7,0,4,1.4,4,4.2c0,1.1-0.4,2.5-1.1,4.1s-1.7,3.2-2.9,4.9s-2.4,3.4-3.8,5.2s-2.6,3.3-3.8,4.7c0.7,2.4,1.9,4.4,3.6,5.9
		C139.6,31.6,141.8,32.4,144.6,32.4z M133.2,16.2c0,1.2,0.1,2.4,0.2,3.5c0.1,1.1,0.3,2.2,0.6,3.3c1.4-1.9,2.9-3.8,4.3-5.9
		s2.6-4.1,3.5-6c0.9-1.9,1.4-3.7,1.4-5.2c0-0.9-0.2-1.6-0.6-2.1c-0.4-0.5-1-0.8-1.9-0.8c-1.1,0-2.3,0.4-3.4,1.3
		c-1.1,0.9-2.1,2.3-2.9,4.2C133.6,10.6,133.2,13.1,133.2,16.2z"/>
	<path d="M174.1,32.3c1.4,0,2.7-0.3,4-1c1.3-0.7,2.5-1.5,3.6-2.6c1.1-1.1,2.2-2.3,3.1-3.6c0.2-0.3,0.5-0.5,0.9-0.5
		c0.3,0,0.4,0.1,0.4,0.3c0,0.2-0.1,0.4-0.2,0.6c-1.9,2.7-3.9,4.8-6.1,6.4s-4.6,2.4-7.1,2.4c-1.2,0-2.2-0.2-3-0.6
		c-0.8-0.4-1.4-1.1-1.9-2.1c-0.4-1-0.8-2.3-0.9-4.1c-0.2-1.7-0.3-3.9-0.3-6.6c0-0.5-0.1-0.9-0.2-1c-0.1-0.2-0.3-0.3-0.6-0.3
		c-0.6,0-1.5,0.5-2.6,1.6c-1.1,1.1-2.3,2.5-3.6,4.3c-0.2,0.3-0.4,0.4-0.7,0.4c-0.3,0-0.5-0.1-0.5-0.3c0-0.1,0.1-0.3,0.2-0.5
		c0.8-1.2,1.7-2.3,2.7-3.5c1-1.1,2-2.1,3-2.8s2.2-1.1,3.3-1.1c1.3,0,1.9,0.8,1.9,2.4c0,2.6,0.1,4.6,0.2,6.2s0.4,2.8,0.7,3.7
		c0.4,0.9,0.8,1.5,1.5,1.8C172.4,32.2,173.2,32.3,174.1,32.3z M171.4,10.6c0,0.4-0.3,0.7-0.9,1.1s-1.1,0.6-1.5,0.6
		c-0.8,0-1.4-0.2-1.9-0.7s-0.7-0.8-0.7-1.1c0-0.4,0.3-0.8,0.9-1.1c0.6-0.4,1.1-0.5,1.5-0.5c0.8,0,1.4,0.2,1.9,0.7
		C171.1,10,171.4,10.3,171.4,10.6z"/>
	<path d="M220.9,33.1c-1.4,0-2.6-0.3-3.7-1c-1.1-0.7-2.1-1.6-3-2.7c-0.9-1.1-1.8-2.3-2.7-3.6c-1.1-1.8-2.2-3.1-3.3-4.1
		s-2.1-1.5-3.1-1.5c-1.4,0-2.4,0.6-3,1.7c-0.6,1.1-1.1,2.8-1.4,5c-0.2,1-0.4,2-0.6,2.9c-0.2,0.9-0.6,1.7-1.1,2.3
		c-0.5,0.6-1.2,0.9-2.1,0.9c-1.1,0-1.9-0.5-2.5-1.4c-0.6-0.9-1.1-2.5-1.6-4.8c-0.4-2-0.7-3.4-1.1-4c-0.4-0.7-0.9-1-1.6-1
		c-0.6,0-1.2,0.3-1.9,0.9s-1.5,1.5-2.4,2.9c-0.2,0.3-0.5,0.4-0.8,0.4c-0.3,0-0.4-0.1-0.4-0.3c0-0.1,0.1-0.3,0.2-0.5
		c1.1-1.5,2.2-2.8,3.2-3.8c1-1,2.2-1.4,3.6-1.4c1.1,0,1.9,0.5,2.5,1.4c0.6,0.9,1.1,2.5,1.4,4.8c0.3,1.7,0.6,2.9,0.9,3.6
		c0.4,0.7,0.8,1.1,1.2,1.1c0.6,0,1.1-1.2,1.5-3.6c0.3-1.7,0.6-3.2,1.1-4.5c0.4-1.3,1.1-2.3,2-3c0.9-0.7,2.1-1.1,3.7-1.1
		c1.3,0,2.5,0.3,3.5,0.9c1,0.6,1.9,1.5,2.7,2.5c0.8,1,1.6,2.1,2.3,3.2c1.4,2,2.7,3.6,3.8,4.6c1.1,1,2.4,1.5,3.8,1.5
		c1.4,0,2.9-0.5,4.5-1.6s3.1-2.6,4.4-4.6c0.2-0.3,0.5-0.5,0.9-0.5c0.3,0,0.4,0.1,0.4,0.3c0,0.2-0.1,0.4-0.2,0.6
		c-1.9,2.7-3.7,4.6-5.6,5.8C224.7,32.5,222.9,33.1,220.9,33.1z"/>
	<path d="M240.9,35.5c-3.4,0-6.1-0.6-8.2-1.7c-2-1.1-3.1-2.7-3.1-4.9c0-0.7,0.1-1.3,0.4-2s0.6-1.3,1-1.9c1.8-2.2,3.8-3.8,6-4.8
		c2.2-1,4.6-1.5,7.1-1.5c2,0,3.6,0.3,4.6,0.9s1.6,1.4,1.6,2.4c0,1-0.5,1.9-1.6,2.7s-2.4,1.4-4.1,1.8c-1.7,0.4-3.6,0.6-5.6,0.6
		c-1.5,0-2.8-0.1-3.7-0.4s-1.5-0.5-1.5-0.9c0-0.3,0.2-0.5,0.5-0.7c0.3-0.2,0.7-0.3,1-0.3c0.4,0,0.9,0.1,1.5,0.3
		c0.4,0.2,1,0.4,1.6,0.5c0.6,0.1,1.4,0.2,2.5,0.2c1.9,0,3.5-0.3,4.6-0.9c1.2-0.6,1.8-1.4,1.8-2.5c0-0.7-0.4-1.3-1.1-1.8
		c-0.8-0.5-1.8-0.7-3.1-0.7c-2,0-3.8,0.4-5.5,1.1s-3,1.7-3.9,2.9c-1,1.2-1.5,2.5-1.5,3.9c0,1.9,0.8,3.3,2.4,4.4s3.8,1.5,6.7,1.5
		c4.3,0,7.8-0.8,10.5-2.4c2.7-1.6,4.9-3.7,6.8-6.4c0.2-0.3,0.5-0.5,0.9-0.5c0.3,0,0.4,0.1,0.4,0.3c0,0.2-0.1,0.4-0.2,0.6
		c-1.4,2-2.9,3.8-4.6,5.2c-1.7,1.5-3.7,2.7-6,3.5C246.8,35.1,244.1,35.5,240.9,35.5z"/>
</g>
</svg>
